<?xml version="1.0" encoding="UTF-8"?>
<svg version="1.1" xmlns="http://www.w3.org/2000/svg" width="512" height="512">
<path d="M0 0 C1.04116974 0.44810028 2.08233948 0.89620056 3.15505981 1.35787964 C6.48370033 2.79226695 9.80825596 4.23586355 13.1328125 5.6796875 C15.33047003 6.62820479 17.52838434 7.57612739 19.7265625 8.5234375 C24.96236561 10.78187085 30.19389884 13.04996162 35.42321777 15.32336426 C38.06767044 16.47209145 40.71376752 17.61693628 43.36035156 18.76074219 C44.82884746 19.39762181 46.29727753 20.03465325 47.765625 20.671875 C48.42384247 20.95555939 49.08205994 21.23924377 49.76022339 21.53152466 C54.14354208 23.44041708 54.14354208 23.44041708 55.2578125 24.5546875 C55.35571198 27.34892341 55.38774159 30.11843963 55.37806702 32.9131012 C55.37934865 34.24357913 55.37934865 34.24357913 55.38065618 35.6009354 C55.38231371 38.59668856 55.37678517 41.5923867 55.37133789 44.58813477 C55.37105605 46.7261861 55.37121369 48.86423754 55.3717804 51.00228882 C55.3720685 56.82643243 55.36616972 62.65055564 55.35920644 68.47469449 C55.35297501 74.55392432 55.35236927 80.63315456 55.35118103 86.71238708 C55.34806709 98.23317248 55.33985286 109.75394844 55.32983154 121.27472967 C55.31867235 134.38695679 55.31316044 147.49918435 55.30813611 160.61141503 C55.29767029 187.59251109 55.28006964 214.57359877 55.2578125 241.5546875 C50.7031213 243.69982948 46.14823495 245.84455639 41.59318542 247.98893738 C40.05128502 248.71488372 38.50943337 249.44093362 36.96763611 250.167099 C26.51292003 255.09101554 16.04865233 259.99373916 5.5703125 264.8671875 C3.78353592 265.69837601 3.78353592 265.69837601 1.96066284 266.5463562 C-0.05926488 267.48396387 -2.08170905 268.41617411 -4.10693359 269.34228516 C-5.70713147 270.07848885 -7.30078872 270.82946167 -8.88134766 271.60693359 C-11.4262843 272.81890584 -13.35042708 273.5690583 -16.19140625 273.46484375 C-19.75893086 272.19189852 -23.14621666 270.63890149 -26.5546875 268.9921875 C-28.9265625 267.8578125 -31.2984375 266.7234375 -33.7421875 265.5546875 C-33.7421875 271.1646875 -33.7421875 276.7746875 -33.7421875 282.5546875 C-45.20448644 288.11299278 -56.67063648 293.66315263 -68.20703125 299.06640625 C-68.80953705 299.34869583 -69.41204285 299.63098541 -70.0328064 299.92182922 C-73.0174791 301.31618961 -76.00936039 302.69197881 -79.01074219 304.05004883 C-83.91873785 306.27179947 -88.73443263 308.46475552 -93.35546875 311.2421875 C-101.9475708 316.20974145 -101.9475708 316.20974145 -107.33984375 314.94580078 C-113.49793702 312.79496466 -119.11332935 309.82473112 -124.7421875 306.5546875 C-124.7421875 312.4946875 -124.7421875 318.4346875 -124.7421875 324.5546875 C-135.59094183 330.0217283 -146.49101223 335.33970276 -157.4921875 340.4921875 C-158.22666107 340.83619598 -158.96113464 341.18020447 -159.71786499 341.53463745 C-163.38988115 343.25341219 -167.06327362 344.96920128 -170.73779297 346.68261719 C-174.23705211 348.31563938 -177.72650053 349.96877686 -181.21484375 351.625 C-182.99433566 352.45670552 -184.77424023 353.2875291 -186.5546875 354.1171875 C-187.33489258 354.49286865 -188.11509766 354.8685498 -188.91894531 355.25561523 C-191.7284487 356.54675199 -194.0799801 357.56309648 -197.203125 357.5234375 C-201.08529575 356.04224004 -204.81785431 354.30578886 -208.5546875 352.4921875 C-209.34294922 352.11513672 -210.13121094 351.73808594 -210.94335938 351.34960938 C-212.87871223 350.42298589 -214.81078299 349.48951283 -216.7421875 348.5546875 C-216.7421875 353.5046875 -216.7421875 358.4546875 -216.7421875 363.5546875 C-234.64841492 372.25982867 -252.58221911 380.89525365 -270.70410156 389.14501953 C-272.73248398 390.08618636 -274.74536157 391.0615011 -276.74121094 392.06982422 C-278.16095215 392.77196045 -278.16095215 392.77196045 -279.609375 393.48828125 C-280.4329248 393.91036865 -281.25647461 394.33245605 -282.10498047 394.76733398 C-288.61642645 396.7113641 -294.47857003 393.61555 -300.296875 390.90625 C-301.10822403 390.53744217 -301.91957306 390.16863434 -302.75550842 389.78865051 C-305.37986944 388.59379723 -307.99845463 387.38681874 -310.6171875 386.1796875 C-313.32014451 384.94526257 -316.0244589 383.71384466 -318.72880554 382.48246765 C-320.52414891 381.66462952 -322.31900168 380.84571354 -324.11335754 380.02571106 C-332.63258001 376.13497536 -341.20233478 372.36808262 -349.79443359 368.64111328 C-350.71434082 368.24005371 -351.63424805 367.83899414 -352.58203125 367.42578125 C-353.36956787 367.08474365 -354.15710449 366.74370605 -354.96850586 366.39233398 C-356.7421875 365.5546875 -356.7421875 365.5546875 -357.7421875 364.5546875 C-357.83610046 362.65224988 -357.85962408 360.74630291 -357.85571289 358.84155273 C-357.85563736 357.6203624 -357.85556183 356.39917206 -357.85548401 355.14097595 C-357.85037661 353.79841064 -357.84516061 352.45584575 -357.83984375 351.11328125 C-357.83797949 349.74707592 -357.83655563 348.38086993 -357.83555603 347.0146637 C-357.83173144 343.41267055 -357.82190167 339.8107175 -357.81085205 336.20874023 C-357.80063666 332.53565005 -357.79605814 328.86255341 -357.79101562 325.18945312 C-357.78027934 317.97784627 -357.76320364 310.7662725 -357.7421875 303.5546875 C-356.82445557 303.14855225 -355.90672363 302.74241699 -354.96118164 302.32397461 C-351.38607736 300.74130587 -347.81197559 299.15638251 -344.23806763 297.5710144 C-342.61828363 296.85289127 -340.99822807 296.13538034 -339.37789917 295.41848755 C-330.27681791 291.39143336 -321.19844759 287.32579249 -312.1796875 283.1171875 C-310.6705616 282.4165971 -309.161367 281.71615467 -307.65209961 281.01586914 C-305.48771382 280.01129516 -303.32603732 279.00233522 -301.17092896 277.97799683 C-299.18047795 277.03202053 -297.18305524 276.10252351 -295.18359375 275.17578125 C-294.05638916 274.6439624 -292.92918457 274.11214355 -291.76782227 273.56420898 C-283.51473442 270.81051591 -273.47803708 277.78110238 -266.7421875 280.5546875 C-266.7421875 263.7246875 -266.7421875 246.8946875 -266.7421875 229.5546875 C-248.33707281 220.35213015 -248.33707281 220.35213015 -240.921875 217.046875 C-240.08987579 216.67289581 -239.25787659 216.29891663 -238.40066528 215.91360474 C-236.67260536 215.13759745 -234.94383824 214.36316302 -233.21435547 213.59033203 C-230.6113389 212.42707383 -228.0105795 211.25888618 -225.41015625 210.08984375 C-221.28271949 208.23613519 -217.14843491 206.39836186 -213.0112915 204.56643677 C-210.85012886 203.60281645 -208.69767449 202.62190051 -206.54638672 201.63647461 C-205.29412296 201.07366055 -204.04169325 200.51121553 -202.7890625 199.94921875 C-201.72268555 199.46300049 -200.65630859 198.97678223 -199.55761719 198.47583008 C-194.61859705 196.8598985 -192.36047586 198.24554332 -187.7421875 200.5546875 C-181.8021875 203.0296875 -181.8021875 203.0296875 -175.7421875 205.5546875 C-175.2471875 166.9446875 -175.2471875 166.9446875 -174.7421875 127.5546875 C-163.58598165 121.97658458 -152.46865853 116.58808263 -141.05371094 111.60253906 C-139.7790611 111.04415771 -138.5046475 110.48523675 -137.23046875 109.92578125 C-136.28843094 109.51255112 -136.28843094 109.51255112 -135.32736206 109.0909729 C-131.10471531 107.21714652 -127.00413672 105.1719234 -122.91015625 103.02734375 C-106.50968124 94.65616548 -106.50968124 94.65616548 -99.48046875 96.3984375 C-95.2011466 97.9333177 -91.52110982 100.04513291 -87.7421875 102.5546875 C-87.0821875 102.8846875 -86.4221875 103.2146875 -85.7421875 103.5546875 C-85.7421875 77.8146875 -85.7421875 52.0746875 -85.7421875 25.5546875 C-74.26353761 20.2501599 -62.78093374 14.9577736 -51.27606201 9.7109375 C-49.62024124 8.95535834 -47.96482765 8.19888605 -46.30987549 7.44140625 C-41.83956301 5.39535509 -37.36309224 3.36438575 -32.87451172 1.35870361 C-31.50115714 0.74228966 -30.13018173 0.12054574 -28.76171875 -0.50665283 C-26.85646332 -1.37851072 -24.94350092 -2.23055234 -23.02734375 -3.078125 C-21.95363525 -3.56168457 -20.87992676 -4.04524414 -19.77368164 -4.54345703 C-12.7321488 -6.63828044 -6.39287436 -2.78925042 0 0 Z " fill="#ECD15A" transform="translate(456.7421875,116.4453125)"/>
<path d="M0 0 C1.04116974 0.44810028 2.08233948 0.89620056 3.15505981 1.35787964 C6.48370033 2.79226695 9.80825596 4.23586355 13.1328125 5.6796875 C15.33047003 6.62820479 17.52838434 7.57612739 19.7265625 8.5234375 C24.96236561 10.78187085 30.19389884 13.04996162 35.42321777 15.32336426 C38.06767044 16.47209145 40.71376752 17.61693628 43.36035156 18.76074219 C44.82884746 19.39762181 46.29727753 20.03465325 47.765625 20.671875 C48.42384247 20.95555939 49.08205994 21.23924377 49.76022339 21.53152466 C54.14354208 23.44041708 54.14354208 23.44041708 55.2578125 24.5546875 C55.35571198 27.34892341 55.38774159 30.11843963 55.37806702 32.9131012 C55.37934865 34.24357913 55.37934865 34.24357913 55.38065618 35.6009354 C55.38231371 38.59668856 55.37678517 41.5923867 55.37133789 44.58813477 C55.37105605 46.7261861 55.37121369 48.86423754 55.3717804 51.00228882 C55.3720685 56.82643243 55.36616972 62.65055564 55.35920644 68.47469449 C55.35297501 74.55392432 55.35236927 80.63315456 55.35118103 86.71238708 C55.34806709 98.23317248 55.33985286 109.75394844 55.32983154 121.27472967 C55.31867235 134.38695679 55.31316044 147.49918435 55.30813611 160.61141503 C55.29767029 187.59251109 55.28006964 214.57359877 55.2578125 241.5546875 C50.7031213 243.69982948 46.14823495 245.84455639 41.59318542 247.98893738 C40.05128502 248.71488372 38.50943337 249.44093362 36.96763611 250.167099 C26.51292003 255.09101554 16.04865233 259.99373916 5.5703125 264.8671875 C3.78353592 265.69837601 3.78353592 265.69837601 1.96066284 266.5463562 C-0.05926488 267.48396387 -2.08170905 268.41617411 -4.10693359 269.34228516 C-5.70713147 270.07848885 -7.30078872 270.82946167 -8.88134766 271.60693359 C-13.00660371 273.57149953 -13.91273085 273.52057883 -18.7421875 272.5546875 C-26.1671875 269.0896875 -26.1671875 269.0896875 -33.7421875 265.5546875 C-33.7421875 219.6846875 -33.7421875 173.8146875 -33.7421875 126.5546875 C-36.7121875 125.5646875 -39.6821875 124.5746875 -42.7421875 123.5546875 C-44.37276583 122.92116387 -45.99577707 122.26706736 -47.60351562 121.57763672 C-48.44047974 121.22071747 -49.27744385 120.86379822 -50.13977051 120.49606323 C-51.00888062 120.12095612 -51.87799072 119.745849 -52.7734375 119.359375 C-53.69056519 118.96646271 -54.60769287 118.57355042 -55.5526123 118.16873169 C-57.47267125 117.34518523 -59.39197471 116.51987531 -61.31054688 115.69287109 C-64.25975 114.42212018 -67.21170752 113.15793962 -70.1640625 111.89453125 C-72.03401913 111.09152987 -73.90381668 110.28815792 -75.7734375 109.484375 C-76.65874146 109.10521942 -77.54404541 108.72606384 -78.45617676 108.3354187 C-79.26792358 107.98480377 -80.07967041 107.63418884 -80.91601562 107.27294922 C-81.63277466 106.96445038 -82.34953369 106.65595154 -83.0880127 106.33810425 C-84.7421875 105.5546875 -84.7421875 105.5546875 -85.7421875 104.5546875 C-85.83719298 102.09024693 -85.86776735 99.65394124 -85.85571289 97.18920898 C-85.85585892 96.41853088 -85.85600494 95.64785278 -85.8561554 94.8538208 C-85.8554561 92.29444611 -85.84766295 89.7351433 -85.83984375 87.17578125 C-85.83797963 85.40601135 -85.8365557 83.63624094 -85.83555603 81.86647034 C-85.83173038 77.19917384 -85.8218997 72.53190827 -85.81085205 67.86462402 C-85.80063894 63.10571715 -85.79605863 58.34680529 -85.79101562 53.58789062 C-85.78027747 44.24347597 -85.76320049 34.8990843 -85.7421875 25.5546875 C-74.26573896 20.24634207 -62.78081076 14.95771752 -51.27606201 9.7109375 C-49.62024124 8.95535834 -47.96482765 8.19888605 -46.30987549 7.44140625 C-41.83956301 5.39535509 -37.36309224 3.36438575 -32.87451172 1.35870361 C-31.50115714 0.74228966 -30.13018173 0.12054574 -28.76171875 -0.50665283 C-26.85646332 -1.37851072 -24.94350092 -2.23055234 -23.02734375 -3.078125 C-21.95363525 -3.56168457 -20.87992676 -4.04524414 -19.77368164 -4.54345703 C-12.7321488 -6.63828044 -6.39287436 -2.78925042 0 0 Z " fill="#ABCCFF" transform="translate(456.7421875,116.4453125)"/>
<path d="M0 0 C3.00197464 1.80118478 4.45166366 2.90332732 6 6 C6.11694211 7.97455458 6.16974012 9.95302898 6.19287109 11.9309082 C6.21696548 13.79843498 6.21696548 13.79843498 6.24154663 15.70368958 C6.25303364 17.06937986 6.26364226 18.43507778 6.2734375 19.80078125 C6.27876118 20.48775778 6.28408485 21.17473431 6.28956985 21.88252831 C6.31629506 25.51924906 6.33567122 29.15593556 6.35009766 32.79272461 C6.36343528 35.80084658 6.39128328 38.80828989 6.43212891 41.81616211 C6.48146845 45.44954777 6.50622 49.08231803 6.51332474 52.7160244 C6.52003392 54.09913029 6.53524779 55.48222262 6.55921555 56.8651371 C6.59089086 58.80348557 6.5879004 60.74230594 6.58349609 62.6809082 C6.59158295 63.78296097 6.5996698 64.88501373 6.60800171 66.02046204 C5.7985513 69.98720784 4.09029547 71.47328885 1 74 C-5.65502124 76.21834041 -10.79849455 74.67489541 -16.9375 72 C-17.62134766 71.71382813 -18.30519531 71.42765625 -19.00976562 71.1328125 C-20.67785269 70.43291583 -22.33962483 69.71800007 -24 69 C-29.1946816 74.56050425 -33.71776848 80.55811625 -38.24316406 86.66015625 C-41.73509687 91.35345198 -45.32039301 95.95268641 -49 100.5 C-53.13023502 105.60990251 -57.13953459 110.79176733 -61.0625 116.0625 C-65.64390313 122.21788212 -70.32449793 128.28090671 -75.08203125 134.30078125 C-78.4303465 138.5379683 -81.74750729 142.79921955 -85.0625 147.0625 C-85.65740234 147.82739746 -86.25230469 148.59229492 -86.86523438 149.38037109 C-91.10772777 154.84018412 -95.3261506 160.31786987 -99.5234375 165.8125 C-99.90822266 166.29460937 -100.29300781 166.77671875 -100.68945312 167.2734375 C-102.08626957 169.067486 -102.08626957 169.067486 -103.51367188 171.3515625 C-109.31524766 179.72810158 -116.60182806 182.52790453 -125.75 186 C-127.32206813 186.62209267 -128.89292451 187.24725496 -130.46264648 187.87524414 C-133.83507278 189.22072188 -137.21297903 190.55096597 -140.59521484 191.87158203 C-149.17738814 195.23490592 -157.69203473 198.76507631 -166.21716309 202.26977539 C-169.86424212 203.7665345 -173.51509837 205.25391319 -177.16670227 206.73959351 C-178.90021886 207.44731251 -180.63217362 208.15887031 -182.36247253 208.87442017 C-186.64421671 210.64486521 -190.93459976 212.36237634 -195.27368164 213.98779297 C-204.52206255 217.52336804 -211.26887624 220.26448023 -216.3125 229.25 C-217.43229321 231.02686195 -218.55342627 232.80288009 -219.67578125 234.578125 C-220.22186035 235.47853516 -220.76793945 236.37894531 -221.33056641 237.30664062 C-224.03442161 241.6688709 -227.02462787 245.82053647 -230 250 C-231.16813078 251.66564083 -232.33479672 253.33230992 -233.5 255 C-240.5 265 -247.5 275 -254.5 285 C-255.0779834 285.8257251 -255.6559668 286.6514502 -256.25146484 287.50219727 C-257.41311751 289.16163156 -258.57490045 290.82097466 -259.73681641 292.48022461 C-262.73129575 296.75679158 -265.723198 301.03512736 -268.7109375 305.31640625 C-271.63109653 309.50025531 -274.56013965 313.67775438 -277.49462891 317.8515625 C-278.83177349 319.75991026 -280.15775032 321.67539579 -281.48046875 323.59375 C-282.16753906 324.5734375 -282.85460937 325.553125 -283.5625 326.5625 C-284.12066406 327.36816406 -284.67882812 328.17382812 -285.25390625 329.00390625 C-288.75793997 333.00963607 -293.60945314 334.77804944 -298.44921875 336.7578125 C-299.08274261 337.01814774 -299.71626648 337.27848297 -300.36898804 337.54670715 C-302.47353129 338.41017327 -304.58046037 339.26764551 -306.6875 340.125 C-308.18101811 340.73614098 -309.67442377 341.34755683 -311.16772461 341.95922852 C-325.19292704 347.69697426 -339.24154547 353.37795365 -353.29370117 359.04931641 C-354.13472382 359.3888887 -354.97574646 359.728461 -355.84225464 360.07832336 C-357.4975694 360.74663323 -359.15302343 361.41459825 -360.80862427 362.0821991 C-364.81018327 363.6985997 -368.80470305 365.32964433 -372.7878418 366.9909668 C-373.93590553 367.46881371 -373.93590553 367.46881371 -375.10716248 367.95631409 C-376.53376964 368.55143861 -377.95914607 369.14952685 -379.38294983 369.75132751 C-390.77443101 374.50225119 -404.41036229 377.71251717 -416.5625 373.875 C-421.59594081 371.12948683 -424.88105772 367.4014109 -427 362 C-427.1953125 358.765625 -427.1953125 358.765625 -427.125 355.25 C-427.09792969 353.49429688 -427.09792969 353.49429688 -427.0703125 351.703125 C-427.04710937 350.81109375 -427.02390625 349.9190625 -427 349 C-409.02373511 341.60801441 -391.04702092 334.21697205 -373.03344727 326.91625977 C-369.90077362 325.64650755 -366.77137023 324.36914881 -363.64428711 323.08569336 C-357.34958034 320.50965026 -351.08297293 317.96910021 -344.62890625 315.8125 C-333.17606768 311.93198001 -327.58139088 307.5847104 -321.35888672 297.20263672 C-318.83156302 293.10606569 -315.97569579 289.23380514 -313.1875 285.3125 C-311.99148231 283.60166191 -310.79748678 281.88940848 -309.60546875 280.17578125 C-306.07884095 275.11119688 -302.54060466 270.05481929 -299 265 C-297.83327869 263.33337158 -296.66661207 261.66670488 -295.5 260 C-293.16666667 256.66666667 -290.83333333 253.33333333 -288.5 250 C-287.92233887 249.1747583 -287.34467773 248.3495166 -286.74951172 247.49926758 C-285.58451636 245.83501172 -284.4194774 244.17078639 -283.25439453 242.5065918 C-279.71697629 237.45363164 -276.18045577 232.40004853 -272.64746094 227.34399414 C-271.47395541 225.66795023 -270.2975603 223.99392547 -269.11816406 222.32202148 C-266.28381597 218.29978328 -263.49758112 214.25916819 -260.8046875 210.140625 C-260.28922363 209.36871826 -259.77375977 208.59681152 -259.24267578 207.80151367 C-258.28744179 206.36866269 -257.34911219 204.92430504 -256.43310547 203.46606445 C-252.600437 197.78492161 -248.23751033 195.59562715 -242 193 C-241.32483337 192.71510712 -240.64966675 192.43021423 -239.95404053 192.13668823 C-234.87460173 189.99651081 -229.77382814 187.91128205 -224.66491699 185.84259033 C-221.76629936 184.66879098 -218.86972314 183.49007862 -215.97363281 182.31005859 C-211.97287636 180.68038091 -207.97141237 179.05246267 -203.96923828 177.42626953 C-195.5701084 174.01305078 -187.17414196 170.59215822 -178.7828064 167.15982056 C-176.3026284 166.14650222 -173.82091851 165.13700573 -171.33911133 164.12768555 C-169.81453491 163.50459262 -168.2900352 162.88131196 -166.765625 162.2578125 C-166.09349472 161.98561386 -165.42136444 161.71341522 -164.72886658 161.43296814 C-155.32181729 158.0111539 -155.32181729 158.0111539 -148.015625 151.63671875 C-147.561875 151.00507813 -147.108125 150.3734375 -146.640625 149.72265625 C-146.18171875 149.05105469 -145.7228125 148.37945312 -145.25 147.6875 C-144.21586657 146.24182368 -143.17934661 144.79785198 -142.140625 143.35546875 C-141.62048828 142.62634277 -141.10035156 141.8972168 -140.56445312 141.14599609 C-138.15411175 137.83967576 -135.58292776 134.67209075 -133 131.5 C-128.86807047 126.3915306 -124.86040513 121.20815168 -120.9375 115.9375 C-116.35609687 109.78211788 -111.67550207 103.71909329 -106.91796875 97.69921875 C-97.84203192 86.21390774 -88.91247079 74.6123398 -80 63 C-78.12557125 60.56206043 -76.25028954 58.12477748 -74.375 55.6875 C-73.52863081 54.58725114 -72.68227516 53.48699186 -71.8359375 52.38671875 C-71.23007812 51.59910156 -70.62421875 50.81148437 -70 50 C-71.155 49.4225 -72.31 48.845 -73.5 48.25 C-74.22445313 47.88390625 -74.94890625 47.5178125 -75.6953125 47.140625 C-77.19868323 46.3965839 -78.7142149 45.67648802 -80.2421875 44.984375 C-80.94601562 44.65953125 -81.64984375 44.3346875 -82.375 44 C-83.02210938 43.71125 -83.66921875 43.4225 -84.3359375 43.125 C-86.47642221 41.67791175 -87.11075714 40.4072433 -88 38 C-88 34.5 -88 34.5 -87 31 C-82.47872466 27.40239302 -77.59617943 25.48097701 -72.2109375 23.49609375 C-71.36234665 23.17596817 -70.5137558 22.85584259 -69.63945007 22.52601624 C-66.88729293 21.48926219 -64.13137448 20.46298338 -61.375 19.4375 C-57.56779339 18.01234726 -53.76218093 16.58297836 -49.95703125 15.15234375 C-49.0156279 14.79913055 -48.07422455 14.44591736 -47.10429382 14.08200073 C-41.49691802 11.96973879 -35.92690913 9.78629071 -30.38671875 7.50390625 C-29.74748474 7.24274521 -29.10825073 6.98158417 -28.449646 6.71250916 C-25.55428708 5.5292509 -22.66770217 4.33089778 -19.79248047 3.09936523 C-13.16635847 0.38915803 -7.18620325 -1.0722929 0 0 Z " fill="#51518C" transform="translate(427,0)"/>
<path d="M0 0 C6.9801504 4.30492325 14.64124913 7.48171889 22.17536926 10.67443848 C23.08871033 11.06452087 24.00205139 11.45460327 24.94306946 11.85650635 C27.82136128 13.08517185 30.70140943 14.30965183 33.58161926 15.53381348 C36.49001566 16.77312685 39.39804323 18.01330026 42.30586243 19.25396729 C44.10614633 20.02174838 45.90683295 20.78858602 47.70796204 21.55438232 C48.51640564 21.89854187 49.32484924 22.24270142 50.15779114 22.59729004 C50.86931335 22.89975647 51.58083557 23.2022229 52.31391907 23.51385498 C53.58605706 24.06796108 54.84053308 24.66327038 56.08161926 25.28381348 C56.08161926 76.76381348 56.08161926 128.24381348 56.08161926 181.28381348 C21.08441323 198.13432009 21.08441323 198.13432009 10.85896301 202.75695801 C5.93628734 204.98737411 1.10392885 207.18513351 -3.53166199 209.97131348 C-12.10519374 214.92977697 -12.10519374 214.92977697 -17.49992371 213.69104004 C-23.52037575 211.61502209 -31.32355449 208.87863972 -35.91838074 204.28381348 C-36.0133672 201.84985329 -36.04396491 199.44438395 -36.03190613 197.01013184 C-36.03205215 196.24920731 -36.03219818 195.48828278 -36.03234863 194.70429993 C-36.03164935 192.17739049 -36.02385628 189.65055386 -36.01603699 187.12365723 C-36.01417286 185.37630758 -36.01274893 183.62895741 -36.01174927 181.88160706 C-36.00792366 177.27349413 -35.99809302 172.66541253 -35.98704529 168.05731201 C-35.97683207 163.35872827 -35.97225184 158.66013949 -35.96720886 153.96154785 C-35.95647079 144.7356226 -35.93939387 135.50972064 -35.91838074 126.28381348 C-36.66835327 126.14824539 -37.41832581 126.01267731 -38.19102478 125.8730011 C-41.91156963 125.069256 -45.27285474 123.56084819 -48.74650574 122.04553223 C-49.49494751 121.72349319 -50.24338928 121.40145416 -51.01451111 121.06965637 C-53.40111576 120.04139777 -55.78473602 119.00641228 -58.16838074 117.97131348 C-59.75543361 117.28663574 -61.3426715 116.60238669 -62.93009949 115.9185791 C-70.27864684 112.74846682 -77.60460315 109.53438129 -84.91838074 106.28381348 C-84.91838074 79.88381348 -84.91838074 53.48381348 -84.91838074 26.28381348 C-73.76217489 20.70571055 -62.64485176 15.31720861 -51.22990417 10.33166504 C-49.95525433 9.77328369 -48.68084074 9.21436273 -47.40666199 8.65490723 C-46.77863678 8.37942047 -46.15061157 8.10393372 -45.5035553 7.82009888 C-41.28090855 5.9462725 -37.18032996 3.90104938 -33.08634949 1.75646973 C-20.51100056 -4.66990344 -12.45152433 -8.05634685 0 0 Z " fill="#F98291" transform="translate(366.9183807373047,217.7161865234375)"/>
<path d="M0 0 C0.65419922 0.26232422 1.30839844 0.52464844 1.98242188 0.79492188 C7.00366261 2.86414015 11.83410782 5.25674456 16.671875 7.71875 C25.1548465 12.02108174 33.84384326 15.73015805 42.625 19.375 C44.86192614 20.30759463 47.09816121 21.24177749 49.33326721 22.1787262 C50.7054301 22.75355186 52.07870923 23.32572212 53.45323181 23.8948822 C58.07604656 25.82604656 58.07604656 25.82604656 59.1875 26.9375 C59.28136381 28.8093094 59.30493804 30.6846806 59.30102539 32.55883789 C59.30094986 33.76000748 59.30087433 34.96117706 59.30079651 36.19874573 C59.29563522 37.5060112 59.29047394 38.81327667 59.28515625 40.16015625 C59.28329198 41.50394132 59.28186812 42.84772707 59.28086853 44.19151306 C59.27704402 47.73432277 59.26721432 51.2770917 59.25616455 54.81988525 C59.24594899 58.43265227 59.2413706 62.04542584 59.23632812 65.65820312 C59.22559198 72.7513188 59.20851636 79.84440674 59.1875 86.9375 C41.27668375 95.63438735 23.34798883 104.27782922 5.22558594 112.52783203 C3.19720352 113.46899886 1.18432593 114.4443136 -0.81152344 115.45263672 C-1.75801758 115.92072754 -2.70451172 116.38881836 -3.6796875 116.87109375 C-4.91501221 117.50422485 -4.91501221 117.50422485 -6.17529297 118.15014648 C-12.68673895 120.0941766 -18.54888253 116.9983625 -24.3671875 114.2890625 C-25.17853653 113.92025467 -25.98988556 113.55144684 -26.82582092 113.17146301 C-29.45018194 111.97660973 -32.06876713 110.76963124 -34.6875 109.5625 C-37.39045701 108.32807507 -40.0947714 107.09665716 -42.79911804 105.86528015 C-44.59446141 105.04744202 -46.38931418 104.22852604 -48.18367004 103.40852356 C-56.70289251 99.51778786 -65.27264728 95.75089512 -73.86474609 92.02392578 C-74.78465332 91.62286621 -75.70456055 91.22180664 -76.65234375 90.80859375 C-77.83364868 90.29703735 -77.83364868 90.29703735 -79.03881836 89.77514648 C-80.8125 88.9375 -80.8125 88.9375 -81.8125 87.9375 C-81.90641296 86.03506238 -81.92993658 84.12911541 -81.92602539 82.22436523 C-81.92594986 81.0031749 -81.92587433 79.78198456 -81.92579651 78.52378845 C-81.92068911 77.18122314 -81.91547311 75.83865825 -81.91015625 74.49609375 C-81.90829199 73.12988842 -81.90686813 71.76368243 -81.90586853 70.3974762 C-81.90204394 66.79548305 -81.89221417 63.19353 -81.88116455 59.59155273 C-81.87094916 55.91846255 -81.86637064 52.24536591 -81.86132812 48.57226562 C-81.85059184 41.36065877 -81.83351614 34.149085 -81.8125 26.9375 C-80.89476807 26.53136475 -79.97703613 26.12522949 -79.03149414 25.70678711 C-75.45638986 24.12411837 -71.88228809 22.53919501 -68.30838013 20.9538269 C-66.68859613 20.23570377 -65.06854057 19.51819284 -63.44821167 18.80130005 C-54.34713041 14.77424586 -45.26876009 10.70860499 -36.25 6.5 C-34.7408741 5.7994096 -33.2316795 5.09896717 -31.72241211 4.39868164 C-29.55802632 3.39410766 -27.39634982 2.38514772 -25.24124146 1.36080933 C-23.25079045 0.41483303 -21.25336774 -0.51466399 -19.25390625 -1.44140625 C-18.12670166 -1.9732251 -16.99949707 -2.50504395 -15.83813477 -3.05297852 C-10.10398999 -4.96621088 -5.34303624 -2.21926297 0 0 Z " fill="#79E9B3" transform="translate(180.8125,393.0625)"/>
<path d="M0 0 C1.04116974 0.44810028 2.08233948 0.89620056 3.15505981 1.35787964 C6.48370033 2.79226695 9.80825596 4.23586355 13.1328125 5.6796875 C15.33047003 6.62820479 17.52838434 7.57612739 19.7265625 8.5234375 C23.96877314 10.35297197 28.20786512 12.18944172 32.44433594 14.03222656 C36.07670093 15.61196224 39.71419168 17.17796914 43.36035156 18.72558594 C44.11454376 19.04816376 44.86873596 19.37074158 45.64578247 19.70309448 C47.01504649 20.28848575 48.38640164 20.86902051 49.76022339 21.44363403 C54.14505494 23.32917238 54.14505494 23.32917238 55.2578125 25.5546875 C37.98199447 33.73401172 20.70408966 41.90946967 3.3828125 49.9921875 C2.2390918 50.5286792 1.09537109 51.0651709 -0.08300781 51.61791992 C-1.14358398 52.11138916 -2.20416016 52.6048584 -3.296875 53.11328125 C-4.20937012 53.53923584 -5.12186523 53.96519043 -6.06201172 54.40405273 C-8.89046613 55.61834547 -11.82205136 56.58130879 -14.7421875 57.5546875 C-14.7421875 128.8346875 -14.7421875 200.1146875 -14.7421875 273.5546875 C-23.7421875 270.5546875 -23.7421875 270.5546875 -33.7421875 265.5546875 C-33.7421875 219.6846875 -33.7421875 173.8146875 -33.7421875 126.5546875 C-36.7121875 125.5646875 -39.6821875 124.5746875 -42.7421875 123.5546875 C-44.37276583 122.92116387 -45.99577707 122.26706736 -47.60351562 121.57763672 C-48.44047974 121.22071747 -49.27744385 120.86379822 -50.13977051 120.49606323 C-51.00888062 120.12095612 -51.87799072 119.745849 -52.7734375 119.359375 C-53.69056519 118.96646271 -54.60769287 118.57355042 -55.5526123 118.16873169 C-57.47267125 117.34518523 -59.39197471 116.51987531 -61.31054688 115.69287109 C-64.25975 114.42212018 -67.21170752 113.15793962 -70.1640625 111.89453125 C-72.03401913 111.09152987 -73.90381668 110.28815792 -75.7734375 109.484375 C-76.65874146 109.10521942 -77.54404541 108.72606384 -78.45617676 108.3354187 C-79.26792358 107.98480377 -80.07967041 107.63418884 -80.91601562 107.27294922 C-81.63277466 106.96445038 -82.34953369 106.65595154 -83.0880127 106.33810425 C-84.7421875 105.5546875 -84.7421875 105.5546875 -85.7421875 104.5546875 C-85.83719298 102.09024693 -85.86776735 99.65394124 -85.85571289 97.18920898 C-85.85585892 96.41853088 -85.85600494 95.64785278 -85.8561554 94.8538208 C-85.8554561 92.29444611 -85.84766295 89.7351433 -85.83984375 87.17578125 C-85.83797963 85.40601135 -85.8365557 83.63624094 -85.83555603 81.86647034 C-85.83173038 77.19917384 -85.8218997 72.53190827 -85.81085205 67.86462402 C-85.80063894 63.10571715 -85.79605863 58.34680529 -85.79101562 53.58789062 C-85.78027747 44.24347597 -85.76320049 34.8990843 -85.7421875 25.5546875 C-74.26573896 20.24634207 -62.78081076 14.95771752 -51.27606201 9.7109375 C-49.62024124 8.95535834 -47.96482765 8.19888605 -46.30987549 7.44140625 C-41.83956301 5.39535509 -37.36309224 3.36438575 -32.87451172 1.35870361 C-31.50115714 0.74228966 -30.13018173 0.12054574 -28.76171875 -0.50665283 C-26.85646332 -1.37851072 -24.94350092 -2.23055234 -23.02734375 -3.078125 C-21.95363525 -3.56168457 -20.87992676 -4.04524414 -19.77368164 -4.54345703 C-12.7321488 -6.63828044 -6.39287436 -2.78925042 0 0 Z " fill="#81B0FD" transform="translate(456.7421875,116.4453125)"/>
<path d="M0 0 C0 51.48 0 102.96 0 156 C-31.50971976 171.17134655 -31.50971976 171.17134655 -41.6875 175.875 C-42.83959961 176.40891357 -43.99169922 176.94282715 -45.17871094 177.49291992 C-53.73566703 181.44603156 -62.331352 185.29832577 -71 189 C-71.66 188.34 -72.32 187.68 -73 187 C-72.34 187 -71.68 187 -71 187 C-71 136.18 -71 85.36 -71 33 C-61.2440789 28.12203945 -51.52506142 23.30546568 -41.625 18.75 C-39.82796025 17.91983039 -38.03092082 17.08966006 -36.23390198 16.25944519 C-34.39541695 15.4105652 -32.55638804 14.56287247 -30.71728516 13.71533203 C-27.5822598 12.26982026 -24.45008906 10.81823904 -21.31896973 9.36428833 C-19.48493716 8.51267913 -17.65050524 7.66193691 -15.81591797 6.81152344 C-13.51363702 5.74429188 -11.21186326 4.67596537 -8.91064453 3.60644531 C-7.88438965 3.13174805 -6.85813477 2.65705078 -5.80078125 2.16796875 C-4.89497314 1.74797607 -3.98916504 1.3279834 -3.0559082 0.89526367 C-1 0 -1 0 0 0 Z " fill="#F69EB2" transform="translate(423,243)"/>
<path d="M0 0 C0.33 0 0.66 0 1 0 C1.33 32.01 1.66 64.02 2 97 C-16.42489244 106.21244622 -16.42489244 106.21244622 -22.296875 108.96484375 C-22.9756218 109.2848233 -23.65436859 109.60480286 -24.35368347 109.93447876 C-26.48462875 110.9379786 -28.61705292 111.93826273 -30.75 112.9375 C-31.4838089 113.28150848 -32.2176178 113.62551697 -32.97366333 113.97994995 C-37.32920253 116.0208234 -41.6873553 118.05603323 -46.04693604 120.08825684 C-47.85068683 120.93029657 -49.65271763 121.77601809 -51.45458984 122.62207031 C-54.27759273 123.94586898 -57.10597029 125.25706494 -59.9375 126.5625 C-60.73446289 126.93818115 -61.53142578 127.3138623 -62.35253906 127.70092773 C-67.65392856 130.11535715 -67.65392856 130.11535715 -71 129 C-70.34 129 -69.68 129 -69 129 C-69 97.65 -69 66.3 -69 34 C-59.56385586 28.96738979 -50.26157786 24.11930151 -40.5625 19.6875 C-38.75266274 18.85480781 -36.94282557 18.02211541 -35.13299561 17.18940735 C-33.30080758 16.34735265 -31.46762889 15.50748672 -29.63427734 14.66796875 C-26.0603226 13.02768534 -22.49233329 11.37505896 -18.92578125 9.71875 C-16.74228272 8.70812758 -14.55869327 7.69770157 -12.375 6.6875 C-11.35607666 6.2133667 -10.33715332 5.7392334 -9.28735352 5.25073242 C-8.35463623 4.82123291 -7.42191895 4.3917334 -6.4609375 3.94921875 C-5.64415527 3.57112061 -4.82737305 3.19302246 -3.98583984 2.8034668 C-2 2 -2 2 0 2 C0 1.34 0 0.68 0 0 Z " fill="#F9E16A" transform="translate(330,344)"/>
<path d="M0 0 C1.04116974 0.44810028 2.08233948 0.89620056 3.15505981 1.35787964 C6.48370033 2.79226695 9.80825596 4.23586355 13.1328125 5.6796875 C15.33047003 6.62820479 17.52838434 7.57612739 19.7265625 8.5234375 C23.96877314 10.35297197 28.20786512 12.18944172 32.44433594 14.03222656 C36.07670093 15.61196224 39.71419168 17.17796914 43.36035156 18.72558594 C44.11454376 19.04816376 44.86873596 19.37074158 45.64578247 19.70309448 C47.01504649 20.28848575 48.38640164 20.86902051 49.76022339 21.44363403 C54.14505494 23.32917238 54.14505494 23.32917238 55.2578125 25.5546875 C36.78027 34.30297431 18.29813931 43.03901225 -0.25878906 51.61791992 C-1.32581055 52.11138916 -2.39283203 52.6048584 -3.4921875 53.11328125 C-4.87664062 53.75221313 -4.87664062 53.75221313 -6.2890625 54.40405273 C-8.70583074 55.47893775 -8.70583074 55.47893775 -10.6953125 56.76977539 C-14.89982926 58.38207518 -18.75539369 56.63484301 -22.69848633 54.96337891 C-24.20199954 54.28486715 -25.70207276 53.59869789 -27.19921875 52.90625 C-28.01202805 52.53739685 -28.82483734 52.1685437 -29.66227722 51.78851318 C-32.29601076 50.5918926 -34.92527182 49.38576204 -37.5546875 48.1796875 C-40.26345629 46.94662139 -42.97336191 45.71607794 -45.68331909 44.48562622 C-47.48359862 43.66798614 -49.28350623 42.84952669 -51.08303833 42.03024292 C-58.61079342 38.60466852 -66.16630381 35.24743535 -73.7421875 31.9296875 C-74.77835205 31.4754541 -75.8145166 31.0212207 -76.88208008 30.55322266 C-79.16810652 29.55215095 -81.45470762 28.5524324 -83.7421875 27.5546875 C-83.7421875 26.5646875 -83.7421875 25.5746875 -83.7421875 24.5546875 C-72.90490698 19.56054 -62.05229335 14.60082434 -51.18756104 9.66668701 C-48.80395662 8.58277615 -46.4220808 7.49514676 -44.04052734 6.40673828 C-40.3702038 4.73124197 -36.69271623 3.07253948 -33.00927734 1.42608643 C-31.62907897 0.80626912 -30.25126885 0.18110448 -28.87597656 -0.44952393 C-26.9560468 -1.32861329 -25.02839803 -2.18794265 -23.09765625 -3.04296875 C-22.01121826 -3.53289307 -20.92478027 -4.02281738 -19.80541992 -4.52758789 C-12.74379169 -6.64320601 -6.41484532 -2.79883649 0 0 Z " fill="#6396FF" transform="translate(456.7421875,116.4453125)"/>
<path d="M0 0 C0.65419922 0.26232422 1.30839844 0.52464844 1.98242188 0.79492188 C7.00192149 2.86342265 11.83150761 5.25438317 16.66796875 7.71484375 C25.17648294 12.02885968 33.88653219 15.76667568 42.6875 19.4375 C44.20463434 20.07502786 45.72156232 20.71304699 47.23828125 21.3515625 C50.88568319 22.88584364 54.53575589 24.41358427 58.1875 25.9375 C58.1875 26.5975 58.1875 27.2575 58.1875 27.9375 C57.27315186 28.35708984 57.27315186 28.35708984 56.34033203 28.78515625 C40.70952264 35.96430592 25.12596094 43.23786065 9.57666016 50.59179688 C8.87176956 50.92461166 8.16687897 51.25742645 7.44062805 51.60032654 C6.12663987 52.22073576 4.81311244 52.84212228 3.50016785 53.46473694 C1.73365194 54.29832295 -0.03936268 55.11809282 -1.8125 55.9375 C-2.97177002 56.52265381 -4.13104004 57.10780762 -5.32543945 57.71069336 C-11.94662069 60.04013645 -17.25933574 57.60187215 -23.3515625 54.796875 C-24.41873253 54.31865799 -24.41873253 54.31865799 -25.50746155 53.83078003 C-27.82140152 52.79149338 -30.12945741 51.73981029 -32.4375 50.6875 C-34.03847211 49.96456477 -35.63979432 49.24240436 -37.24145508 48.52099609 C-40.50368759 47.0506751 -43.76384416 45.57587142 -47.02294922 44.09863281 C-51.5360755 42.05695063 -56.06423849 40.0508218 -60.59765625 38.0546875 C-62.59718312 37.17122399 -64.59645976 36.28719696 -66.59564209 35.4029541 C-67.86210583 34.84402312 -69.12939786 34.28696509 -70.39752197 33.73181152 C-72.14655914 32.9652199 -73.89175462 32.18988072 -75.63671875 31.4140625 C-76.61729248 30.98174316 -77.59786621 30.54942383 -78.6081543 30.10400391 C-80.8125 28.9375 -80.8125 28.9375 -81.8125 26.9375 C-80.89476807 26.53136475 -79.97703613 26.12522949 -79.03149414 25.70678711 C-75.45638986 24.12411837 -71.88228809 22.53919501 -68.30838013 20.9538269 C-66.68859613 20.23570377 -65.06854057 19.51819284 -63.44821167 18.80130005 C-54.34713041 14.77424586 -45.26876009 10.70860499 -36.25 6.5 C-34.7408741 5.7994096 -33.2316795 5.09896717 -31.72241211 4.39868164 C-29.55802632 3.39410766 -27.39634982 2.38514772 -25.24124146 1.36080933 C-23.25079045 0.41483303 -21.25336774 -0.51466399 -19.25390625 -1.44140625 C-18.12670166 -1.9732251 -16.99949707 -2.50504395 -15.83813477 -3.05297852 C-10.10398999 -4.96621088 -5.34303624 -2.21926297 0 0 Z " fill="#14D2A9" transform="translate(180.8125,393.0625)"/>
<path d="M0 0 C1.01707031 0.38800781 2.03414063 0.77601563 3.08203125 1.17578125 C3.98308594 1.55089844 4.88414062 1.92601562 5.8125 2.3125 C6.70582031 2.67988281 7.59914063 3.04726563 8.51953125 3.42578125 C11.46145753 4.75641682 14.31088176 6.173863 17.18359375 7.64453125 C25.70332433 11.93441185 34.4846704 15.62084055 43.25 19.375 C44.97800301 20.1181678 46.70586862 20.86165515 48.43359375 21.60546875 C52.62082341 23.40732809 56.80988014 25.2048725 61 27 C61 27.66 61 28.32 61 29 C55.91729923 31.39717673 50.83392173 33.79291375 45.75 36.1875 C44.98878845 36.54604065 44.2275769 36.9045813 43.44329834 37.27398682 C31.50895999 42.89352193 19.55740445 48.47457678 7.58496094 54.01245117 C5.96895996 54.7603894 5.96895996 54.7603894 4.3203125 55.5234375 C3.38461426 55.95575684 2.44891602 56.38807617 1.48486328 56.83349609 C-0.94883883 57.92850797 -0.94883883 57.92850797 -2.95751953 59.15478516 C-7.10172399 60.86973087 -10.30282319 60.25631719 -14.43383789 58.73754883 C-15.70214095 58.15559298 -16.96484228 57.56132363 -18.22265625 56.95703125 C-19.2584507 56.4767598 -19.2584507 56.4767598 -20.31517029 55.98678589 C-22.56929969 54.93908818 -24.81577202 53.87596434 -27.0625 52.8125 C-29.41238658 51.7143804 -31.76398438 50.6199852 -34.11569214 49.52577209 C-35.71326069 48.78210666 -37.31020175 48.03709178 -38.90652466 47.29075623 C-44.13037921 44.85217856 -49.37763145 42.474839 -54.65234375 40.1484375 C-55.32403091 39.85154526 -55.99571808 39.55465302 -56.6877594 39.24876404 C-59.24873267 38.11784117 -61.81008845 36.98801321 -64.3767395 35.87002563 C-66.11838328 35.11078477 -67.8561696 34.34271345 -69.59375 33.57421875 C-70.57021484 33.14713623 -71.54667969 32.72005371 -72.55273438 32.2800293 C-74.85591865 31.07536099 -76.3090545 29.94849497 -78 28 C-68.25159073 23.48336886 -58.49183553 18.99264003 -48.71600342 14.53564453 C-43.78586611 12.28484692 -38.87031776 10.00632609 -33.96777344 7.69607544 C-31.08569003 6.34415369 -28.19295947 5.01630992 -25.29711914 3.69415283 C-23.94185337 3.06909004 -22.59128085 2.43374018 -21.24584961 1.78778076 C-13.45860772 -1.94334205 -8.02304708 -4.35920992 0 0 Z " fill="#EAC736" transform="translate(269,317)"/>
<path d="M0 0 C1.05864258 0.44956055 1.05864258 0.44956055 2.13867188 0.90820312 C2.86248047 1.23626953 3.58628906 1.56433594 4.33203125 1.90234375 C5.03650391 2.20333984 5.74097656 2.50433594 6.46679688 2.81445312 C10.31123251 4.48095509 14.06274005 6.29282559 17.79394531 8.19824219 C22.87129697 10.74449049 28.03550406 13.00272257 33.2734375 15.1953125 C35.1504711 15.99004433 37.02742195 16.78497162 38.90429688 17.58007812 C41.82647519 18.81371084 44.74952494 20.04518669 47.67407227 21.27319336 C50.52216837 22.47063727 53.36673632 23.67615251 56.2109375 24.8828125 C57.0931044 25.25053268 57.9752713 25.61825287 58.88417053 25.99711609 C59.69268967 26.3412001 60.5012088 26.68528412 61.33422852 27.03979492 C62.40484276 27.49016365 62.40484276 27.49016365 63.49708557 27.94963074 C65.14453125 28.83984375 65.14453125 28.83984375 66.14453125 30.83984375 C56.35593747 35.45648169 46.56376291 40.06544364 36.76806641 44.66699219 C33.82156239 46.05122908 30.8758859 47.43719625 27.93115234 48.82519531 C24.15083314 50.60674982 20.36667476 52.37999406 16.58203125 54.15234375 C15.45571289 54.68432373 14.32939453 55.21630371 13.16894531 55.7644043 C11.09067543 56.73458965 9.00197535 57.68287066 6.90161133 58.60424805 C4.19537511 59.76290647 4.19537511 59.76290647 1.94018555 61.10083008 C-1.95808869 63.0377779 -4.10077017 63.06868715 -8.31518555 61.79077148 C-12.62858909 60.06108277 -16.76390364 57.9789253 -20.91796875 55.90234375 C-23.23604889 54.78238878 -25.55876615 53.67245497 -27.88171387 52.56263733 C-29.47332374 51.80112376 -31.0632406 51.03606212 -32.65148926 50.26756287 C-38.12433794 47.62723939 -43.64671061 45.14101613 -49.234375 42.75390625 C-49.97726273 42.43584518 -50.72015045 42.11778412 -51.48554993 41.79008484 C-54.35427925 40.56508239 -57.22458093 39.34423213 -60.10134888 38.13821411 C-62.06773001 37.31229273 -64.02828405 36.47374557 -65.98828125 35.6328125 C-67.10090332 35.16383545 -68.21352539 34.6948584 -69.35986328 34.21166992 C-71.85546875 32.83984375 -71.85546875 32.83984375 -72.85546875 29.83984375 C-55.75377731 21.99657577 -38.64788534 14.1634389 -21.48046875 6.46484375 C-20.27688721 5.92448486 -19.07330566 5.38412598 -17.83325195 4.82739258 C-16.71909912 4.32876709 -15.60494629 3.8301416 -14.45703125 3.31640625 C-13.49104004 2.88408691 -12.52504883 2.45176758 -11.52978516 2.00634766 C-10.20599854 1.42892822 -10.20599854 1.42892822 -8.85546875 0.83984375 C-7.99445557 0.43483643 -7.13344238 0.0298291 -6.24633789 -0.38745117 C-3.49440976 -1.27684692 -2.60455686 -1.13791319 0 0 Z " fill="#FE6B7B" transform="translate(355.85546875,213.16015625)"/>
<path d="M0 0 C1.23230347 0.65621338 1.23230347 0.65621338 2.48950195 1.32568359 C4.19870284 2.23601351 5.90694613 3.14814352 7.61425781 4.06201172 C10.93429138 5.83668621 14.26219349 7.59627322 17.59057617 9.35522461 C20.79099847 11.04658811 23.98920541 12.74211721 27.1875 14.4375 C27.1875 15.0975 27.1875 15.7575 27.1875 16.4375 C26.10895752 16.87392822 25.03041504 17.31035645 23.91918945 17.76000977 C11.96240726 22.59841423 0.00608379 27.43795126 -11.9498291 32.27850342 C-13.81009024 33.03165891 -15.67035994 33.78479323 -17.53063965 34.53790283 C-22.53872049 36.56539295 -27.54658126 38.59342485 -32.55410767 40.62228394 C-34.07306157 41.23762694 -35.5920816 41.85280673 -37.11117554 42.46780396 C-39.25269477 43.33483291 -41.39396103 44.20248371 -43.53515625 45.0703125 C-44.21466339 45.34537628 -44.89417053 45.62044006 -45.5942688 45.90383911 C-49.20675541 47.36902654 -52.81169691 48.85051749 -56.40893555 50.3527832 C-57.16931625 50.66935883 -57.92969696 50.98593445 -58.71311951 51.31210327 C-60.15759138 51.91438884 -61.60085638 52.51958107 -63.0426178 53.12832642 C-74.51692655 57.90803687 -88.1390393 61.17648759 -100.375 57.3125 C-105.40844081 54.56698683 -108.69355772 50.8389109 -110.8125 45.4375 C-111.0078125 42.203125 -111.0078125 42.203125 -110.9375 38.6875 C-110.91042969 36.93179688 -110.91042969 36.93179688 -110.8828125 35.140625 C-110.85960938 34.24859375 -110.83640625 33.3565625 -110.8125 32.4375 C-67.6586796 14.69229985 -67.6586796 14.69229985 -47.46777344 6.56054688 C-45.97327464 5.95841437 -44.47880774 5.35620269 -42.984375 4.75390625 C-42.27190613 4.46681793 -41.55943726 4.17972961 -40.82537842 3.88394165 C-36.6193339 2.18386502 -32.43602709 0.43862656 -28.265625 -1.34765625 C-27.33194092 -1.74146484 -26.39825684 -2.13527344 -25.4362793 -2.54101562 C-23.80598556 -3.23098838 -22.18160336 -3.93522884 -20.56567383 -4.65820312 C-12.54663867 -8.01809748 -7.04508637 -3.79278835 0 0 Z " fill="#404077" transform="translate(110.8125,316.5625)"/>
<path d="M0 0 C0 19.8 0 39.6 0 60 C-17.91126742 68.69223272 -35.8506878 77.28405557 -53.94238281 85.59423828 C-56.02243765 86.55055861 -58.09982445 87.51269885 -60.17480469 88.47998047 C-61.16641602 88.93904785 -62.15802734 89.39811523 -63.1796875 89.87109375 C-64.06124512 90.28157959 -64.94280273 90.69206543 -65.85107422 91.11499023 C-68 92 -68 92 -70 92 C-70.09265347 84.35929258 -70.16374109 76.71864335 -70.20724869 69.07750225 C-70.22812977 65.52941238 -70.25645545 61.98170665 -70.30175781 58.43383789 C-70.35350697 54.35559387 -70.37294074 50.27775374 -70.390625 46.19921875 C-70.41127014 44.92414963 -70.43191528 43.64908051 -70.45318604 42.33537292 C-70.45348816 41.15437515 -70.45379028 39.97337738 -70.45410156 38.7565918 C-70.46298401 37.71512497 -70.47186646 36.67365814 -70.48101807 35.60063171 C-70 33 -70 33 -68.12692261 31.22021484 C-65.68918954 29.82168813 -63.23726193 28.59313979 -60.6796875 27.42578125 C-59.60259521 26.93045898 -58.52550293 26.43513672 -57.41577148 25.92480469 C-56.24731689 25.39274414 -55.0788623 24.86068359 -53.875 24.3125 C-51.36223457 23.15982508 -48.85106922 22.00368155 -46.33984375 20.84765625 C-45.67870071 20.54383026 -45.01755768 20.24000427 -44.33638 19.92697144 C-39.10762389 17.52064988 -33.89657154 15.07798535 -28.69140625 12.62109375 C-27.9190564 12.25659622 -27.14670654 11.89209869 -26.35095215 11.51655579 C-23.28707955 10.06985441 -20.22365028 8.62222665 -17.16131592 7.17227173 C-15.02357336 6.16030924 -12.88490055 5.15033576 -10.74609375 4.140625 C-10.1066835 3.83704575 -9.46727325 3.53346649 -8.80848694 3.22068787 C-1.97923704 0 -1.97923704 0 0 0 Z " fill="#B3FEC5" transform="translate(240,420)"/>
<path d="M0 0 C0.8340033 0.41556656 1.66800659 0.83113312 2.52728271 1.2592926 C4.28366242 2.13646415 6.03853817 3.01665276 7.79199219 3.8996582 C10.48452163 5.25398001 13.1832376 6.59533412 15.8828125 7.93554688 C17.58892717 8.7895949 19.29466967 9.64438691 21 10.5 C21.81035706 10.90214218 22.62071411 11.30428436 23.45562744 11.71861267 C24.20020203 12.0956282 24.94477661 12.47264374 25.71191406 12.86108398 C26.69856049 13.35619728 26.69856049 13.35619728 27.70513916 13.86131287 C29.234375 14.81640625 29.234375 14.81640625 30.234375 16.81640625 C8.71268807 25.82745351 -12.84697025 34.74142199 -34.44824219 43.56005859 C-35.33071625 43.92054291 -36.21319031 44.28102722 -37.12240601 44.6524353 C-38.85250373 45.3581545 -40.58330425 46.06215355 -42.31484985 46.76431274 C-46.45226376 48.44507614 -50.57158714 50.15544622 -54.66650391 51.9375 C-55.44125565 52.27019897 -56.21600739 52.60289795 -57.01423645 52.94567871 C-58.46146429 53.56890395 -59.90432212 54.20242244 -61.34159851 54.8482666 C-65.29847139 56.5404619 -67.69575053 57.3243204 -71.765625 55.81640625 C-74.82698707 54.42622578 -77.80571241 52.9007443 -80.78515625 51.34375 C-81.64372726 50.90124405 -82.50229828 50.4587381 -83.3868866 50.00282288 C-86.12034272 48.5923164 -88.84924837 47.17324888 -91.578125 45.75390625 C-93.43395098 44.79435342 -95.29006759 43.83536246 -97.14648438 42.87695312 C-101.68959228 40.5299367 -106.22863915 38.17523389 -110.765625 35.81640625 C-108.09155553 33.6825638 -105.60114797 32.17319489 -102.43237305 30.89379883 C-101.57618881 30.54469955 -100.72000458 30.19560028 -99.83787537 29.83592224 C-98.91039993 29.46467728 -97.9829245 29.09343231 -97.02734375 28.7109375 C-96.05003799 28.31419327 -95.07273224 27.91744904 -94.06581116 27.50868225 C-90.86372541 26.21005972 -87.65844125 24.91953192 -84.453125 23.62890625 C-82.24420628 22.73452827 -80.03554934 21.83950348 -77.82714844 20.94384766 C-73.33073613 19.12052305 -68.83337048 17.2995791 -64.33544922 15.47998047 C-54.71501704 11.58416127 -45.11519668 7.63827454 -35.515625 3.69140625 C-33.09820195 2.69810764 -30.68068431 1.70504022 -28.26304626 0.71226501 C-26.85087622 0.13234651 -25.43880863 -0.44782158 -24.02687073 -1.02830505 C-22.27382633 -1.74845117 -20.51976823 -2.46612833 -18.765625 -3.18359375 C-17.89325195 -3.59593262 -17.02087891 -4.00827148 -16.12207031 -4.43310547 C-10.3569925 -6.26918599 -5.05777785 -2.5480313 0 0 Z " fill="#404077" transform="translate(286.765625,162.18359375)"/>
</svg>
