<?xml version="1.0" encoding="UTF-8"?>
<svg version="1.1" xmlns="http://www.w3.org/2000/svg" width="512" height="512">
<path d="M0 0 C0.75068756 -0.00974854 1.50137512 -0.01949707 2.27481079 -0.02954102 C18.87058349 -0.20073073 34.73214407 0.02666294 50.8984375 4.23828125 C51.65415039 4.42551758 52.40986328 4.61275391 53.18847656 4.80566406 C63.91479867 7.5023816 73.94877573 11.43804779 83.8984375 16.23828125 C84.589375 16.56812012 85.2803125 16.89795898 85.9921875 17.23779297 C103.45711805 25.68532946 118.36949528 37.36244307 131.8984375 51.23828125 C132.52878906 51.82351562 133.15914063 52.40875 133.80859375 53.01171875 C159.62961905 77.51209196 174.03473529 113.53903268 178.8984375 148.23828125 C179.02992188 149.16125 179.16140625 150.08421875 179.296875 151.03515625 C183.86516719 190.79164506 172.74308057 228.20146516 152.8984375 262.23828125 C157.71710997 268.04719871 162.91100158 273.36893677 168.2734375 278.67578125 C169.52060547 279.91618164 169.52060547 279.91618164 170.79296875 281.18164062 C172.8258479 283.20283656 174.86103713 285.2216446 176.8984375 287.23828125 C179.18993354 286.13120827 181.18983979 285.03123226 183.2734375 283.55078125 C185.8984375 282.23828125 185.8984375 282.23828125 188.7109375 282.11328125 C197.70650822 285.28818856 204.72114058 294.91348368 211.36328125 301.5703125 C212.44789817 302.65425445 213.53266338 303.73804803 214.61756897 304.82170105 C216.87403187 307.07669985 219.12870151 309.33347195 221.38208008 311.59155273 C224.27272482 314.48793532 227.16789205 317.37974945 230.06438351 320.2702837 C232.29746487 322.49975955 234.52816912 324.73160153 236.7581501 326.96417809 C237.82556302 328.03225818 238.89371954 329.09959568 239.96262932 330.16617775 C241.44878813 331.64980579 242.93171904 333.13658573 244.41381836 334.62426758 C245.68001259 335.8916552 245.68001259 335.8916552 246.9717865 337.18464661 C248.8984375 339.23828125 248.8984375 339.23828125 249.8984375 341.23828125 C249.79144531 341.88539063 249.68445313 342.5325 249.57421875 343.19921875 C249.02267005 346.86434883 248.830189 349.74282227 251.07177734 352.88085938 C254.39943754 356.63358169 258.11133657 359.95838134 261.8984375 363.23828125 C262.5584375 362.90828125 263.2184375 362.57828125 263.8984375 362.23828125 C267.35352625 361.68546705 269.8160066 361.47206256 272.75989628 363.55594921 C273.3889207 364.13248399 274.01794512 364.70901876 274.66603088 365.30302429 C275.36522203 365.9413085 276.06441319 366.5795927 276.78479195 367.23721886 C280.06863251 370.34614591 283.29934065 373.49988207 286.49194336 376.70239258 C287.55930222 377.76712296 287.55930222 377.76712296 288.64822388 378.85336304 C290.97241174 381.17319029 293.29297109 383.49660724 295.61328125 385.8203125 C297.23598373 387.44234073 298.85883458 389.06422053 300.48182678 390.68595886 C303.86817356 394.07083691 307.25271864 397.4575034 310.63598633 400.84545898 C314.97945507 405.19465196 319.32743464 409.5393034 323.67674923 413.88264942 C327.02158492 417.22388052 330.36404632 420.56747854 333.70578194 423.91180992 C335.30908304 425.51577916 336.91313022 427.11900299 338.51792717 428.7214756 C340.75127234 430.95229299 342.98140705 433.18627013 345.21069336 435.42114258 C345.87713364 436.08555862 346.54357391 436.74997467 347.23020935 437.43452454 C347.83425598 438.04139099 348.43830261 438.64825745 349.06065369 439.27351379 C349.58766845 439.80090558 350.11468321 440.32829737 350.65766811 440.87167072 C353.19496249 443.66630222 353.32240802 446.42413894 353.26176453 450.13053894 C352.61928267 453.85772157 350.1236 456.12521825 347.51757812 458.65429688 C346.94521423 459.24067932 346.37285034 459.82706177 345.78314209 460.43121338 C343.89323425 462.35621653 341.97569703 464.25060179 340.0546875 466.14453125 C338.72746517 467.47714542 337.4014321 468.810945 336.07653809 470.14587402 C333.29822039 472.93597283 330.50598314 475.71112388 327.703125 478.4765625 C324.11563793 482.01846834 320.56527173 485.59508583 317.02457428 489.18369293 C314.29372398 491.94348469 311.54406317 494.68389692 308.78837585 497.41886902 C307.47162365 498.73029356 306.16076354 500.04766226 304.85603333 501.37104797 C303.02753575 503.21992197 301.17523778 505.04112272 299.31445312 506.85742188 C298.78217102 507.40589783 298.24988892 507.95437378 297.70147705 508.51947021 C294.84877002 511.24742492 292.88889368 512.24017437 288.99743652 513.01208496 C283.49425528 512.54112267 280.60437832 509.01962505 276.8984375 505.23828125 C275.85731784 504.21538596 274.8140375 503.19468725 273.76912308 502.17566872 C269.84061816 498.33008007 265.95529817 494.44196305 262.06884766 490.55395508 C260.57359309 489.061696 259.07813474 487.56964108 257.58248901 486.07777405 C253.53920388 482.04328773 249.49913476 478.00559601 245.45992708 473.9670279 C242.93572146 471.44353447 240.41080459 468.92075496 237.88563156 466.3982296 C229.0756867 457.59752043 220.26831301 448.79424765 211.46337891 439.98852539 C203.25401827 431.77856257 195.03908094 423.57420914 186.82154238 415.37243253 C179.76221853 408.32616752 172.70673838 401.27606954 165.65426099 394.22295207 C161.44354402 390.01197987 157.23128122 385.80258265 153.01515579 381.59702492 C149.05612304 377.64764666 145.1018842 373.69353173 141.15132523 369.73567772 C139.69938253 368.28268628 138.24572228 366.83140887 136.79024506 365.38195801 C134.80739074 363.40678476 132.83076686 361.42558077 130.85562134 359.44270325 C130.27547984 358.86770531 129.69533834 358.29270737 129.09761679 357.70028526 C124.03403347 352.59264271 124.03403347 352.59264271 122.8984375 349.23828125 C123.0928949 343.79347396 124.16988731 341.96683144 127.8984375 338.23828125 C127.75818551 335.53122613 127.75818551 335.53122613 126.8984375 333.23828125 C126.2384375 333.23828125 125.5784375 333.23828125 124.8984375 333.23828125 C124.8984375 332.57828125 124.8984375 331.91828125 124.8984375 331.23828125 C124.2384375 331.23828125 123.5784375 331.23828125 122.8984375 331.23828125 C122.8984375 330.57828125 122.8984375 329.91828125 122.8984375 329.23828125 C121.5784375 328.57828125 120.2584375 327.91828125 118.8984375 327.23828125 C118.8984375 326.57828125 118.8984375 325.91828125 118.8984375 325.23828125 C118.2590625 324.97015625 117.6196875 324.70203125 116.9609375 324.42578125 C114.8984375 323.23828125 114.8984375 323.23828125 113.8984375 320.23828125 C113.0321875 319.83609375 113.0321875 319.83609375 112.1484375 319.42578125 C108.85379436 317.68694181 107.18643052 315.16182789 104.8984375 312.23828125 C100.38071896 313.57536387 96.72331214 315.40991698 92.7109375 317.86328125 C54.87738435 340.11740784 8.25651042 344.59420007 -33.859375 333.71484375 C-59.73392395 326.64597437 -83.12031231 314.07278555 -103.1015625 296.23828125 C-103.87242188 295.58859375 -104.64328125 294.93890625 -105.4375 294.26953125 C-110.15827578 290.29033328 -114.17683469 285.99757761 -118.1015625 281.23828125 C-118.54016602 280.71733887 -118.97876953 280.19639648 -119.43066406 279.65966797 C-142.53080068 252.16355217 -158.95711086 216.31093022 -159.33984375 179.91796875 C-159.34959229 179.14503983 -159.35934082 178.3721109 -159.36938477 177.57575989 C-159.53802491 160.7466325 -159.38679298 144.62919982 -155.1015625 128.23828125 C-154.91964355 127.49465332 -154.73772461 126.75102539 -154.55029297 125.98486328 C-147.48924468 97.40623262 -147.48924468 97.40623262 -139.1015625 90.23828125 C-136.37648452 89.84749569 -133.87034294 90.10211172 -131.1015625 90.23828125 C-130.84761719 89.52027344 -130.59367187 88.80226563 -130.33203125 88.0625 C-129.0149191 85.03941402 -127.35217415 82.71224491 -125.4140625 80.05078125 C-122.75661717 76.01860861 -121.67084235 73.88601417 -122.6015625 69.11328125 C-123.09788125 66.28160551 -123.34609422 64.78542098 -122.1640625 62.140625 C-120.29923281 59.64641529 -118.27520206 57.47211391 -116.1015625 55.23828125 C-115.57401367 54.67947266 -115.04646484 54.12066406 -114.50292969 53.54492188 C-85.1434113 22.50070689 -43.44326057 0.47119455 0 0 Z " fill="#010101" transform="translate(159.1015625,-0.23828125)"/>
<path d="M0 0 C0.66135956 0.00149048 1.32271912 0.00298096 2.00411987 0.0045166 C12.15114539 0.04561941 21.51389914 0.64015431 31.3125 3.3125 C32.39402344 3.57933594 33.47554687 3.84617188 34.58984375 4.12109375 C45.07922882 6.98183513 54.76451841 12.02011749 64.08984375 17.5390625 C67.60356635 19.47267469 69.37562972 19.83741604 73.3125 19.3125 C74.66143383 18.67799252 75.99825812 18.01605561 77.3125 17.3125 C79.46495547 19.07577715 81.60935786 20.84748249 83.75 22.625 C84.66749023 23.37426758 84.66749023 23.37426758 85.60351562 24.13867188 C90.19921875 27.97265625 90.19921875 27.97265625 91.3125 31.3125 C90.9825 31.9725 90.6525 32.6325 90.3125 33.3125 C89.7477183 37.42054373 90.13820753 39.03982187 92.40234375 42.58203125 C93.34206294 43.7705936 94.29192642 44.95118245 95.25 46.125 C113.88261981 70.33021755 122.32411714 100.29481888 119.05322266 130.72460938 C118.40371209 135.32052598 117.41912634 139.80364107 116.3125 144.3125 C116.10753906 145.25609375 115.90257812 146.1996875 115.69140625 147.171875 C111.11076436 166.4048807 100.5569075 183.88818983 87.3125 198.3125 C86.58289063 199.12460938 85.85328125 199.93671875 85.1015625 200.7734375 C70.39961318 216.34985221 49.48926381 227.48165216 28.8125 232.5 C28.12414062 232.66733643 27.43578125 232.83467285 26.7265625 233.00708008 C-3.7276715 239.97061307 -35.31575006 233.56875229 -61.6875 217.3125 C-86.37714756 200.83253893 -106.8457839 175.78577618 -113.11376953 146.22094727 C-113.69403013 143.25985762 -114.20332487 140.29069954 -114.6875 137.3125 C-114.85950928 136.39017578 -115.03151855 135.46785156 -115.20874023 134.51757812 C-119.87649189 103.26911117 -111.73629524 72.92789685 -93.625 47.375 C-74.66311027 22.97215565 -48.43511044 5.92417246 -17.74682617 0.6875 C-11.84264137 -0.03621142 -5.94115871 -0.02551947 0 0 Z " fill="#92DBFB" transform="translate(167.6875,51.6875)"/>
<path d="M0 0 C2.46830046 2.18642664 4.88428295 4.41543843 7.28125 6.6796875 C8.02890625 7.37449219 8.7765625 8.06929687 9.546875 8.78515625 C30.07914597 28.49182891 43.52441987 55.27602254 50.28125 82.6796875 C50.54591064 83.71343506 50.54591064 83.71343506 50.81591797 84.76806641 C54.21772727 98.5337625 53.65233358 112.59938496 53.28125 126.6796875 C53.26578125 127.44007324 53.2503125 128.20045898 53.234375 128.98388672 C52.29077151 168.07462713 30.38120571 204.90923287 3.00390625 231.3671875 C-3.69489382 237.62800495 -10.95121974 242.83443008 -18.71875 247.6796875 C-19.38084473 248.09541016 -20.04293945 248.51113281 -20.72509766 248.93945312 C-54.04361994 269.52650754 -95.77435524 276.31732882 -134.00732422 267.9375 C-155.40580472 262.81708753 -176.55664363 253.61688826 -193.71875 239.6796875 C-194.59015625 239.00808594 -195.4615625 238.33648437 -196.359375 237.64453125 C-227.94211153 212.78440578 -248.69950955 176.22118492 -253.89428711 136.3293457 C-257.15061793 107.54814294 -253.53143641 79.00354279 -240.90332031 52.79003906 C-239.24144428 49.28038222 -238.1964712 46.57936919 -238.71875 42.6796875 C-239.234375 41.9990625 -239.75 41.3184375 -240.28125 40.6171875 C-240.755625 39.9778125 -241.23 39.3384375 -241.71875 38.6796875 C-241.05252671 34.49015764 -238.9146207 31.03043668 -236.78125 27.4296875 C-236.44029297 26.78 -236.09933594 26.1303125 -235.74804688 25.4609375 C-234.54314449 23.45907524 -233.59265319 22.08729581 -231.71875 20.6796875 C-229.4152832 20.50146484 -229.4152832 20.50146484 -226.8359375 20.6875 C-223.09599725 20.96897865 -223.09599725 20.96897865 -219.77807617 19.4609375 C-217.97612392 17.6597563 -216.37312112 15.79381532 -214.78125 13.8046875 C-213.58287656 12.41888454 -212.38102493 11.03608202 -211.17578125 9.65625 C-210.5926416 8.97594727 -210.00950195 8.29564453 -209.40869141 7.59472656 C-202.84614478 0.15805858 -195.04295272 -5.98247629 -186.71875 -11.3203125 C-185.62046875 -12.02929688 -184.5221875 -12.73828125 -183.390625 -13.46875 C-125.80356889 -49.7778769 -51.67543032 -44.10230691 0 0 Z M-189.203125 38.7578125 C-194.53781859 44.55189844 -198.80190021 50.86503422 -202.71875 57.6796875 C-203.08049316 58.30423828 -203.44223633 58.92878906 -203.81494141 59.57226562 C-218.49281005 85.46267165 -222.47857326 117.88856756 -214.71875 146.6796875 C-214.52539062 147.51757812 -214.33203125 148.35546875 -214.1328125 149.21875 C-206.67225289 178.18897497 -186.00176027 203.15329424 -160.74414062 218.50244141 C-149.38333159 225.10584319 -137.45796674 229.57053385 -124.71875 232.6796875 C-123.73003906 232.92589844 -122.74132812 233.17210937 -121.72265625 233.42578125 C-91.89359011 239.56083741 -59.71835902 230.95205004 -34.41113281 214.83349609 C-29.14017767 211.23993954 -24.40931461 206.98656584 -19.71875 202.6796875 C-18.50058594 201.58527344 -18.50058594 201.58527344 -17.2578125 200.46875 C3.57423624 180.80621978 16.46129244 151.05085372 17.51953125 122.5703125 C18.12080444 92.00017526 9.14238631 65.62785228 -9.71875 41.6796875 C-12.04498648 38.19033279 -11.96947494 36.77486152 -11.71875 32.6796875 C-11.40622652 31.34132359 -11.07697424 30.00655007 -10.71875 28.6796875 C-12.27641862 27.23695365 -13.84010957 25.80072042 -15.40625 24.3671875 C-16.27636719 23.56667969 -17.14648438 22.76617187 -18.04296875 21.94140625 C-20.50045312 19.86420413 -22.91378316 18.24137174 -25.71875 16.6796875 C-26.70875 17.3396875 -27.69875 17.9996875 -28.71875 18.6796875 C-34.19182647 19.44921619 -37.65428458 17.34396675 -42.15625 14.5546875 C-91.37818124 -14.43428626 -150.88075867 -1.23117757 -189.203125 38.7578125 Z " fill="#9FA8B5" transform="translate(269.71875,52.3203125)"/>
<path d="M0 0 C1.59702542 3.19405084 1.50343003 6.53271429 1 10 C-1.10247122 12.58765689 -2.40069607 12.92846736 -5.68359375 13.3203125 C-9.9520493 12.90804706 -12.87372356 11.08300623 -16.4375 8.875 C-41.36254649 -5.804463 -74.12754204 -11.24671295 -102.5078125 -4.1015625 C-133.28283475 5.60599485 -159.54800332 22.55326565 -176 51 C-176.36319336 51.62600098 -176.72638672 52.25200195 -177.10058594 52.89697266 C-191.77493334 78.78623986 -195.75899936 111.21193694 -188 140 C-187.80664062 140.83789062 -187.61328125 141.67578125 -187.4140625 142.5390625 C-180.03775782 171.18211573 -159.96264293 195.56931723 -135.04150391 210.80664062 C-123.69510807 217.43916668 -111.73849809 221.89102174 -99 225 C-98.01128906 225.24621094 -97.02257812 225.49242187 -96.00390625 225.74609375 C-66.17763793 231.88057447 -34.00315319 223.27356064 -8.69677734 207.15820312 C-3.42559973 203.56015037 1.29687042 199.29692136 6 195 C6.73863281 194.34386719 7.47726563 193.68773437 8.23828125 193.01171875 C28.76718293 173.79929974 41.20414818 143.72240487 42.23828125 115.890625 C42.83955444 85.32048776 33.86113631 58.94816478 15 35 C12.67420899 31.51131349 12.58134543 30.10281481 13 26 C14 23.625 14 23.625 16 22 C21.36090226 21.22180451 21.36090226 21.22180451 24 22 C44.05080534 39.79155967 55.18575665 69.8992725 58 96 C58.13647887 99.73030136 58.14319967 103.45505118 58.125 107.1875 C58.11774902 108.73159546 58.11774902 108.73159546 58.11035156 110.30688477 C57.83437331 145.16569759 45.01069644 176.65972102 21 202 C20.16726563 202.8971875 19.33453125 203.794375 18.4765625 204.71875 C-4.28528725 228.48185414 -36.7052895 242.11833036 -69.44140625 243.27734375 C-81.35773074 243.52889152 -92.45257508 243.11511928 -104 240 C-105.21171875 239.7215625 -106.4234375 239.443125 -107.671875 239.15625 C-126.47241584 234.63163851 -144.41749347 225.73266633 -159 213 C-159.85464844 212.25492188 -160.70929688 211.50984375 -161.58984375 210.7421875 C-164.08919106 208.52472147 -166.54954883 206.27125151 -169 204 C-169.59296875 203.47277344 -170.1859375 202.94554687 -170.796875 202.40234375 C-193.58064796 181.19173606 -206.62796502 147.39009885 -208.109375 116.73681641 C-208.86343029 93.82767409 -204.80249484 71.39349493 -194 51 C-193.69255859 50.39414063 -193.38511719 49.78828125 -193.06835938 49.1640625 C-187.36743734 37.96461803 -180.27910441 28.42843228 -172 19 C-171.33613281 18.23300781 -170.67226562 17.46601562 -169.98828125 16.67578125 C-127.10074481 -29.29580276 -51.02815308 -35.40728989 0 0 Z " fill="#020303" transform="translate(244,59)"/>
<path d="M0 0 C3.6039198 1.69072598 5.89656956 3.67781411 8.6953125 6.53515625 C9.57574219 7.42654297 10.45617187 8.31792969 11.36328125 9.23632812 C12.27464844 10.16896484 13.18601562 11.10160156 14.125 12.0625 C15.93789615 13.90972167 17.75289358 15.75488421 19.5703125 17.59765625 C20.37227051 18.41758057 21.17422852 19.23750488 22.00048828 20.08227539 C25.57450712 23.5101042 28.1551227 23.08353237 33 23 C38.08557577 23 39.89222212 25.04874073 43.3125 28.4375 C44.13911133 29.25468506 44.13911133 29.25468506 44.98242188 30.08837891 C48.87434851 34.22143051 48.87434851 34.22143051 49.41796875 37.58984375 C49 39.875 49 39.875 48.25 41.8671875 C47.85162145 45.26585448 49.99855346 47.42567493 52 50 C54.17265305 52.43115907 56.4698447 54.72332051 58.78808594 57.01513672 C59.46166641 57.68900925 60.13524689 58.36288177 60.82923889 59.05717468 C63.04290702 61.26945646 65.26356075 63.47458147 67.484375 65.6796875 C69.0260917 67.21767161 70.5673656 68.7560997 72.10821533 70.29495239 C76.15454657 74.33366661 80.20684908 78.36633711 84.26043701 82.39776611 C88.3999138 86.5167429 92.53369779 90.64142425 96.66796875 94.765625 C104.77309359 102.84933399 112.88454002 110.92666773 121 119 C119.51657 122.44677 117.56949812 124.67343301 114.91748047 127.30957031 C114.07675995 128.15013977 113.23603943 128.99070923 112.36984253 129.85675049 C111.46146637 130.75480408 110.55309021 131.65285767 109.6171875 132.578125 C108.68778351 133.5046991 107.75837952 134.43127319 106.80081177 135.38592529 C104.3359615 137.84315789 101.86516334 140.29432361 99.39306641 142.7442627 C96.86909235 145.24773809 94.35080612 147.75692063 91.83203125 150.265625 C86.89356403 155.18267525 81.948788 160.09333788 77 165 C73.27571543 163.44332539 70.91317604 161.15977084 68.07720947 158.31771851 C67.35541948 157.59849179 67.35541948 157.59849179 66.61904788 156.86473525 C65.00979687 155.25877535 63.40779294 153.64577761 61.80566406 152.03271484 C60.65280898 150.87929556 59.49951322 149.7263166 58.34580994 148.57374573 C55.2156193 145.44412928 52.09163658 142.30838145 48.96872044 139.17150831 C45.70381161 135.89410321 42.43324414 132.62235503 39.16326904 129.3500061 C32.9722168 123.15273586 26.78628079 116.95038466 20.60216022 110.7461983 C13.56140661 103.68309568 6.51497812 96.62566627 -0.53193617 89.56871104 C-15.02762053 75.05211742 -29.51615252 60.52840319 -44 46 C-42.38773372 42.59398288 -40.60239912 40.35927099 -37.91748047 37.69042969 C-36.65639969 36.4295755 -36.65639969 36.4295755 -35.36984253 35.14324951 C-34.46146637 34.24519592 -33.55309021 33.34714233 -32.6171875 32.421875 C-31.68778351 31.4953009 -30.75837952 30.56872681 -29.80081177 29.61407471 C-27.3359615 27.15684211 -24.86516334 24.70567639 -22.39306641 22.2557373 C-19.86909235 19.75226191 -17.35080612 17.24307937 -14.83203125 14.734375 C-9.89356403 9.81732475 -4.948788 4.90666212 0 0 Z " fill="#E97E86" transform="translate(372,328)"/>
<path d="M0 0 C11.67149879 17.50724818 10.52367822 44.12968452 10 64 C9.97679687 65.14057861 9.97679687 65.14057861 9.953125 66.30419922 C9.00952151 105.39493963 -12.90004429 142.22954537 -40.27734375 168.6875 C-46.97614382 174.94831745 -54.23246974 180.15474258 -62 185 C-62.66209473 185.41572266 -63.32418945 185.83144531 -64.00634766 186.25976562 C-98.98165243 207.87052305 -141.47056293 213.35502862 -181.29296875 204.2890625 C-184.52909988 203.52305925 -186.16488064 202.89007958 -189 201 C-184.62727187 199.79518281 -180.84140969 200.27973328 -176.4375 200.9375 C-135.64319673 206.23747743 -92.79224721 195.07480633 -60.0625 170 C-44.19891242 157.2528333 -30.95873185 143.16810734 -20 126 C-19.62746094 125.42024414 -19.25492188 124.84048828 -18.87109375 124.24316406 C1.88749155 91.43923729 9.03168417 49.0633981 1.421875 11.1171875 C0.95065771 9.07748981 0.4756873 7.03865985 0 5 C-0.125 1.9375 -0.125 1.9375 0 0 Z " fill="#8D98A3" transform="translate(313,115)"/>
<path d="M0 0 C3.83557497 1.91778749 5.74448271 3.52254291 8.6953125 6.53515625 C9.57574219 7.42654297 10.45617187 8.31792969 11.36328125 9.23632812 C12.27464844 10.16896484 13.18601562 11.10160156 14.125 12.0625 C15.93789615 13.90972167 17.75289358 15.75488421 19.5703125 17.59765625 C20.37227051 18.41758057 21.17422852 19.23750488 22.00048828 20.08227539 C25.57450712 23.5101042 28.1551227 23.08353237 33 23 C38.08557577 23 39.89222212 25.04874073 43.3125 28.4375 C43.86357422 28.98229004 44.41464844 29.52708008 44.98242188 30.08837891 C48.87434851 34.22143051 48.87434851 34.22143051 49.41796875 37.58984375 C49 39.875 49 39.875 48.25 41.8671875 C47.85162145 45.26585448 49.99855346 47.42567493 52 50 C54.17265305 52.43115907 56.4698447 54.72332051 58.78808594 57.01513672 C59.46166641 57.68900925 60.13524689 58.36288177 60.82923889 59.05717468 C63.04290702 61.26945646 65.26356075 63.47458147 67.484375 65.6796875 C69.0260917 67.21767161 70.5673656 68.7560997 72.10821533 70.29495239 C76.15454657 74.33366661 80.20684908 78.36633711 84.26043701 82.39776611 C88.3999138 86.5167429 92.53369779 90.64142425 96.66796875 94.765625 C104.77309359 102.84933399 112.88454002 110.92666773 121 119 C119.49053489 122.18086518 117.92058175 124.29869906 115.375 126.75 C114.74335938 127.36359375 114.11171875 127.9771875 113.4609375 128.609375 C112.97882813 129.06828125 112.49671875 129.5271875 112 130 C71.66666667 89.66666667 31.33333333 49.33333333 -9 9 C-6.03 6.03 -3.06 3.06 0 0 Z " fill="#DF4955" transform="translate(372,328)"/>
<path d="M0 0 C12.44888146 14.07909212 12.88558243 40.72905651 12.17724609 58.29101562 C11.75909189 64.68197853 10.52566349 70.7838083 9 77 C8.69255859 78.41539062 8.69255859 78.41539062 8.37890625 79.859375 C3.79826436 99.0923807 -6.7555925 116.57568983 -20 131 C-20.72960937 131.81210938 -21.45921875 132.62421875 -22.2109375 133.4609375 C-36.91288682 149.03735221 -57.82323619 160.16915216 -78.5 165.1875 C-79.18835938 165.35483643 -79.87671875 165.52217285 -80.5859375 165.69458008 C-105.07397113 171.29390758 -131.21117339 168.41264924 -154 158 C-154.66 157.34 -155.32 156.68 -156 156 C-152.22523075 156.38518054 -148.59921628 156.85794116 -144.90234375 157.734375 C-114.91858426 164.77375154 -81.3136555 157.86093198 -55.21533203 141.90917969 C-47.49709119 137.01742828 -40.59157776 131.3179651 -34 125 C-33.13375 124.175 -32.2675 123.35 -31.375 122.5 C-30.59125 121.675 -29.8075 120.85 -29 120 C-28.41992188 119.40316406 -27.83984375 118.80632812 -27.2421875 118.19140625 C-4.6564315 94.05564739 4.79585927 60.82199229 4.265625 28.37109375 C4.02276285 21.36154694 2.61618271 14.81719622 1 8 C0.58186075 5.33242645 0.27414323 2.68660366 0 0 Z " fill="#3FBDF4" transform="translate(275,119)"/>
<path d="M0 0 C1.48046875 1.50390625 1.48046875 1.50390625 3.1875 3.5625 C6.60201725 7.58675247 10.21845349 11.32190005 14 15 C12.51657 18.44677 10.56949812 20.67343301 7.91748047 23.30957031 C7.07675995 24.15013977 6.23603943 24.99070923 5.36984253 25.85675049 C4.46146637 26.75480408 3.55309021 27.65285767 2.6171875 28.578125 C1.68778351 29.5046991 0.75837952 30.43127319 -0.19918823 31.38592529 C-2.6640385 33.84315789 -5.13483666 36.29432361 -7.60693359 38.7442627 C-10.13090765 41.24773809 -12.64919388 43.75692063 -15.16796875 46.265625 C-20.10643597 51.18267525 -25.051212 56.09333788 -30 61 C-33.9717011 59.17738456 -36.63426823 56.56017582 -39.625 53.4375 C-42.96402902 49.77285984 -42.96402902 49.77285984 -47 47 C-45.50653729 43.52390466 -43.52025581 41.26709055 -40.85742188 38.59863281 C-40.00313599 37.7380426 -39.1488501 36.87745239 -38.26867676 35.99078369 C-37.34470093 35.07085632 -36.4207251 34.15092896 -35.46875 33.203125 C-34.51203629 32.24506363 -33.5556196 31.28670557 -32.5994873 30.32806396 C-30.59869437 28.32432736 -28.59434051 26.32424111 -26.58740234 24.32666016 C-24.01137893 21.7620617 -21.44447901 19.18854789 -18.88014984 16.61226273 C-16.9089754 14.63387554 -14.93308003 12.660259 -12.95570374 10.6880722 C-11.54487229 9.2792281 -10.13807611 7.86634682 -8.73132324 6.45343018 C-7.87703735 5.60544861 -7.02275146 4.75746704 -6.14257812 3.88378906 C-5.38916138 3.1319635 -4.63574463 2.38013794 -3.85949707 1.60552979 C-2 0 -2 0 0 0 Z " fill="#F3E1BD" transform="translate(348,301)"/>
<path d="M0 0 C3.86328627 1.5847358 6.28876923 4.05956887 9.203125 7.0078125 C9.6857782 7.49329559 10.1684314 7.97877869 10.66571045 8.47897339 C12.19858562 10.02299866 13.72434004 11.57384824 15.25 13.125 C16.29120361 14.17624009 17.33286541 15.22702657 18.375 16.27734375 C20.92199464 18.84633004 23.46265177 21.42148161 26 24 C21.03805145 29.99500997 15.6523376 35.46427037 10.125 40.9375 C9.24585938 41.81212891 8.36671875 42.68675781 7.4609375 43.58789062 C5.3095654 45.72757048 3.15588208 47.86486597 1 50 C-4.80891746 45.18132753 -10.13065552 39.98743592 -15.4375 34.625 C-16.67790039 33.37783203 -16.67790039 33.37783203 -17.94335938 32.10546875 C-19.96455531 30.0725896 -21.98336335 28.03740037 -24 26 C-22.12377126 21.85452256 -19.30505305 19.3375669 -15.9375 16.375 C-10.21070443 11.22814319 -5.01273742 5.85467007 0 0 Z " fill="#8E99A4" transform="translate(300,276)"/>
<path d="M0 0 C4.00280901 2.96982604 7.49850558 6.46598396 11 10 C9.54254576 13.36335594 7.68882146 15.54534005 5.0859375 18.109375 C4.32539063 18.86347656 3.56484375 19.61757813 2.78125 20.39453125 C1.9871875 21.17183594 1.193125 21.94914062 0.375 22.75 C-0.82769531 23.93916016 -0.82769531 23.93916016 -2.0546875 25.15234375 C-4.03202846 27.10614493 -6.01388909 29.05512103 -8 31 C-12.1413833 27.5191826 -16.13790851 23.98304674 -19.9375 20.125 C-20.70964844 19.34382813 -21.48179687 18.56265625 -22.27734375 17.7578125 C-22.84582031 17.17773438 -23.41429687 16.59765625 -24 16 C-22.40541656 11.84620856 -19.35779059 9.27443328 -16.125 6.375 C-15.59519531 5.88515625 -15.06539063 5.3953125 -14.51953125 4.890625 C-9.62559296 0.4460061 -6.60092231 -2.15799383 0 0 Z " fill="#A0A9B6" transform="translate(309,295)"/>
<path d="M0 0 C1.48046875 1.50390625 1.48046875 1.50390625 3.1875 3.5625 C6.60201725 7.58675247 10.21845349 11.32190005 14 15 C12.59155282 18.21524305 10.89655214 20.32183868 8.375 22.75 C7.74335938 23.36359375 7.11171875 23.9771875 6.4609375 24.609375 C5.97882813 25.06828125 5.49671875 25.5271875 5 26 C0.33333333 21.33333333 -4.33333333 16.66666667 -9 12 C-12.04581486 13.36113013 -14.13839026 14.89330096 -16.48339844 17.25634766 C-17.14378113 17.91688141 -17.80416382 18.57741516 -18.48455811 19.25796509 C-19.18574768 19.96947723 -19.88693726 20.68098938 -20.609375 21.4140625 C-21.33618469 22.14370209 -22.06299438 22.87334167 -22.81182861 23.62509155 C-25.12929198 25.9537388 -27.4396995 28.28924826 -29.75 30.625 C-31.32115444 32.20618653 -32.89276371 33.78692125 -34.46484375 35.3671875 C-38.31518653 39.2395669 -42.15976117 43.11760171 -46 47 C-46 44 -46 44 -44.3430481 41.96882629 C-43.56742523 41.19383286 -42.79180237 40.41883942 -41.99267578 39.62036133 C-41.11821808 38.73967484 -40.24376038 37.85898834 -39.34280396 36.95161438 C-38.37727983 35.99477743 -37.41144173 35.03825721 -36.4453125 34.08203125 C-35.46310188 33.10033909 -34.48140879 32.11812886 -33.50021362 31.13542175 C-31.44183825 29.07713613 -29.37838676 27.02412232 -27.31103516 24.97485352 C-24.65701956 22.34354009 -22.0142345 19.70128182 -19.37492561 17.05522633 C-17.34904784 15.02601264 -15.31822556 13.001809 -13.28576279 10.97919273 C-12.30917735 10.00646499 -11.33394704 9.03237485 -10.36008072 8.05692482 C-9.00035097 6.69682561 -7.63340638 5.3439507 -6.26611328 3.99145508 C-5.48889923 3.21884842 -4.71168518 2.44624176 -3.91091919 1.65022278 C-2 0 -2 0 0 0 Z " fill="#E2C998" transform="translate(348,301)"/>
<path d="M0 0 C1.74949772 2.62424658 2.65389981 4.55727216 3.625 7.5 C3.88539063 8.2734375 4.14578125 9.046875 4.4140625 9.84375 C5 12 5 12 5 15 C4.01 14.67 3.02 14.34 2 14 C0.30737336 9.619084 -0.30153263 4.67375574 0 0 Z " fill="#7F8892" transform="translate(313,115)"/>
<path d="M0 0 C2.96052484 3.36423277 3.92289822 6.69159287 5 11 C4.01 10.67 3.02 10.34 2 10 C0.47839986 6.3962102 0 3.94779314 0 0 Z " fill="#41B1E3" transform="translate(275,119)"/>
</svg>
